<svg xmlns="http://www.w3.org/2000/svg" width="48" height="48" id="candidate"><path d="M24 0C10.751 0 0 10.751 0 24s10.751 24 24 24 24-10.751 24-24S37.249 0 24 0zm0 1c12.708 0 23 10.291 23 23S36.708 47 24 47 1 36.709 1 24 11.292 1 24 1zm0 8c-1.059 0-2 .756-2 1.78 0 .075.017.146.027.22H19.5a.5.5 0 0 0-.5.5v.5h-5.5a.5.5 0 0 0-.5.5v26a.5.5 0 0 0 .5.5h21a.5.5 0 0 0 .5-.5v-26a.5.5 0 0 0-.5-.5H29v-.5a.5.5 0 0 0-.5-.5h-2.527c.01-.074.027-.145.027-.22C26 9.755 25.059 9 24 9zm0 1c.598 0 1 .39 1 .78 0 .096-.023.189-.066.277a.727.727 0 0 1-.082.129.5.5 0 0 0 .464.814H28v3h-8v-3h2.682a.5.5 0 0 0 .466-.814.744.744 0 0 1-.082-.13.616.616 0 0 1-.066-.277c0-.39.402-.779 1-.779zm-10 3h5v1h-3.5a.5.5 0 0 0-.5.5v22a.5.5 0 0 0 .5.5h13.873a.5.5 0 0 0 .06 0 .5.5 0 0 0 .42-.14l3-3.003a.5.5 0 0 0 .145-.388.5.5 0 0 0 .002-.053V14.504a.5.5 0 0 0-.5-.5H29v-1h5v25H14V13zm2 2h3v.5a.5.5 0 0 0 .5.5h9a.5.5 0 0 0 .5-.5V15h3v18h-2.5a.5.5 0 0 0-.5.5V36H16V15zm4.357 2a.5.5 0 0 0-.34.158l-1.554 1.62-.596-.622a.5.5 0 1 0-.722.694l.957.998a.5.5 0 0 0 .722 0l1.914-1.998a.5.5 0 0 0-.38-.85zm2.084 0a.5.5 0 0 0 .051 1h8a.5.5 0 1 0 0-1h-8a.5.5 0 0 0-.05 0zm.008 1.998a.5.5 0 1 0 .051 1h4a.5.5 0 1 0 0-1h-4a.5.5 0 0 0-.05 0zm-2.092 3a.5.5 0 0 0-.34.158l-1.554 1.62-.596-.622a.5.5 0 1 0-.722.694l.957.998a.5.5 0 0 0 .722 0l1.914-1.998a.5.5 0 0 0-.38-.85zm2.084 0a.5.5 0 0 0 .051 1h8a.5.5 0 1 0 0-1h-8a.5.5 0 0 0-.05 0zm.159 1.998a.5.5 0 0 0 .05 1H28a.5.5 0 1 0 0-1h-5.35a.5.5 0 0 0-.05 0zm-4.1 3c-.822 0-1.5.678-1.5 1.5s.678 1.5 1.5 1.5 1.5-.678 1.5-1.5-.678-1.5-1.5-1.5zm3.941 0a.5.5 0 0 0 .051 1h8a.5.5 0 1 0 0-1h-8a.5.5 0 0 0-.05 0zm-3.941 1c.286 0 .5.214.5.5 0 .286-.214.5-.5.5a.488.488 0 0 1-.5-.5c0-.286.214-.5.5-.5zm3.95 1a.5.5 0 1 0 .05 1h2a.5.5 0 1 0 0-1h-2a.5.5 0 0 0-.05 0zm-3.95 3c-.822 0-1.5.678-1.5 1.5s.678 1.5 1.5 1.5 1.5-.678 1.5-1.5-.678-1.5-1.5-1.5zm3.95 0a.5.5 0 1 0 .05 1h5a.5.5 0 1 0 0-1h-5a.5.5 0 0 0-.05 0zm-3.95 1c.286 0 .5.214.5.5 0 .286-.214.5-.5.5a.488.488 0 0 1-.5-.5c0-.286.214-.5.5-.5zm3.95 1a.5.5 0 1 0 .05 1h3a.5.5 0 1 0 0-1h-3a.5.5 0 0 0-.05 0zm7.55 0h1.293L30 35.29v-1.293z" color="#000" font-family="sans-serif" font-weight="400" overflow="visible" style="line-height:normal;text-indent:0;text-align:start;text-decoration-line:none;text-decoration-style:solid;text-decoration-color:#000;text-transform:none;block-progression:tb;isolation:auto;mix-blend-mode:normal"></path></svg>